<svg width="1200" height="800" viewBox="0 0 1200 800" fill="none" xmlns="http://www.w3.org/2000/svg">
  <defs>
    <linearGradient id="bg" x1="0" y1="0" x2="1200" y2="800" gradientUnits="userSpaceOnUse">
      <stop stop-color="#FFE8F3"/>
      <stop offset="1" stop-color="#E7F6FF"/>
    </linearGradient>
    <linearGradient id="bowl" x1="360" y1="330" x2="840" y2="600" gradientUnits="userSpaceOnUse">
      <stop stop-color="#F5A2CA"/>
      <stop offset="1" stop-color="#C05A8F"/>
    </linearGradient>
    <linearGradient id="acai" x1="420" y1="260" x2="780" y2="430" gradientUnits="userSpaceOnUse">
      <stop stop-color="#9B4AA5"/>
      <stop offset="1" stop-color="#6A2D77"/>
    </linearGradient>
  </defs>

  <rect width="1200" height="800" rx="48" fill="url(#bg)"/>

  <circle cx="180" cy="140" r="54" fill="#FFD8E8" opacity="0.8"/>
  <circle cx="1030" cy="180" r="70" fill="#D8EFFF" opacity="0.7"/>
  <circle cx="1020" cy="640" r="60" fill="#FFE6A8" opacity="0.55"/>

  <ellipse cx="600" cy="300" rx="220" ry="84" fill="url(#acai)"/>
  <path d="M360 330C380 520 470 620 600 620C730 620 820 520 840 330H360Z" fill="url(#bowl)"/>
  <ellipse cx="600" cy="330" rx="240" ry="36" fill="#C86EA0" opacity="0.65"/>

  <ellipse cx="500" cy="250" rx="56" ry="32" fill="#89C36D"/>
  <ellipse cx="560" cy="248" rx="52" ry="30" fill="#9CD47C"/>
  <ellipse cx="620" cy="250" rx="56" ry="32" fill="#7AB55F"/>
  <ellipse cx="680" cy="252" rx="54" ry="31" fill="#93CB76"/>

  <circle cx="470" cy="290" r="18" fill="#2F5AF5"/>
  <circle cx="515" cy="286" r="16" fill="#2F5AF5"/>
  <circle cx="560" cy="292" r="17" fill="#2F5AF5"/>
  <circle cx="615" cy="289" r="15" fill="#2F5AF5"/>
  <circle cx="660" cy="294" r="18" fill="#2F5AF5"/>
  <circle cx="710" cy="289" r="16" fill="#2F5AF5"/>

  <ellipse cx="450" cy="260" rx="32" ry="12" transform="rotate(-20 450 260)" fill="#FFE6B0"/>
  <ellipse cx="750" cy="270" rx="34" ry="12" transform="rotate(20 750 270)" fill="#FFE6B0"/>

  <text x="600" y="735" text-anchor="middle" fill="#7A2C60" font-size="52" font-family="Arial, sans-serif" font-weight="700">
    Monday Craving: Acai Bowl
  </text>
</svg>
